<svg xmlns="http://www.w3.org/2000/svg" viewBox="0 0 304.49 85.65">
  <defs>
    <style>
      .cls-1{fill:#e30b17;}.cls-2,.cls-3{fill:#fff;}.cls-3,.cls-4{fill-rule:evenodd;}
    </style>
  </defs>
  <title>
    logo_jugend-forscht_wir-foerdern-talente
  </title>
  <g id="Ebene_1" data-name="Ebene 1">
    <path class="cls-1" d="M133,15.82a15.64,15.64,0,1,1,15.64,15.64A15.64,15.64,0,0,1,133,15.82"/>
    <path class="cls-2" d="M147.55 28l-.41-.07-.26 1.64c0 .3-.14.45-.41.41s-.31-.21-.26-.48l0-.13-.42-.07 0 .13a.68.68 0 0 0 .59.88c.69.11.85-.29.92-.7l.25-1.62M147.83 29.54a1 1 0 0 0 2 0V28h-.42v1.41c0 .33 0 .71-.57.7s-.57-.37-.57-.7V28h-.42v1.55M152.29 28.61l-1 .28.08.31L152 29a.61.61 0 0 1-.47.83c-.5.14-.84-.24-1-.69s0-.95.46-1.08a.58.58 0 0 1 .73.29l.4-.11a1 1 0 0 0-1.22-.51 1.27 1.27 0 0 0 .69 2.44.87.87 0 0 0 .6-.53l.14.26.26-.08-.35-1.23M153.13 29.65L154.77 28.99 154.63 28.65 153.39 29.15 153.13 28.5 154.25 28.04 154.13 27.72 152.99 28.18 152.75 27.59 153.98 27.1 153.84 26.75 152.22 27.41 153.13 29.65"/>
    <path class="cls-3" d="M155.27 28.75L155.62 28.55 154.7 27.02 154.71 27.02 156.56 27.98 156.95 27.75 155.7 25.67 155.36 25.88 156.28 27.41 156.27 27.41 154.4 26.45 154.02 26.68 155.27 28.75M156.42 25.54l.31-.29c.49-.46.85-.27 1.17.08s.49.73 0 1.19l-.3.28zm1.11 1.8l.73-.68a1.22 1.22 0 0 0-1.65-1.77l-.74.68 1.65 1.77"/>
    <path class="cls-2" d="M160.2 24.56L160.44 24.21 159.54 23.61 160.15 22.7 159.87 22.51 159.26 23.41 158.73 23.06 159.43 22.03 159.13 21.82 158.19 23.21 160.2 24.56"/>
    <path class="cls-3" d="M159.55 20.77a1.27 1.27 0 1 0 1.62-.54A1.17 1.17 0 0 0 159.55 20.77zm.31.14a.8.8 0 0 1 1.14-.3c.43.19.75.57.54 1a.79.79 0 0 1-1.14.3c-.43-.19-.76-.58-.55-1.05M160.52 19.32l.15-.67c.05-.22.15-.4.46-.33a.35.35 0 0 1 .28.49l-.15.67zm1.92.88l.1-.42-1-.22.14-.61c.09-.38.3-.42.73-.32a.69.69 0 0 0 .36 0l.1-.44a1.15 1.15 0 0 1-.65 0c-.37-.09-.53.09-.58.24h0a.59.59 0 0 0-.5-.53c-.4-.09-.7.12-.82.63l-.26 1.13 2.36.55"/>
    <path class="cls-2" d="M162.16 17.79c.6 0 .89-.41.92-1s-.17-1-.71-1a.64.64 0 0 0-.64.44c0 .12-.21.65-.22.69s-.16.28-.32.27-.3-.26-.29-.46.14-.5.46-.5l0-.42c-.5 0-.79.38-.82.89s.18.9.66.92a.62.62 0 0 0 .64-.5c.11-.33.17-.55.24-.71a.29.29 0 0 1 .31-.18c.18 0 .36.16.33.53s-.17.61-.55.58l0 .42M161.17 13.48a1 1 0 0 0-.7 1.12 1.27 1.27 0 0 0 2.52-.31 1 1 0 0 0-1.1-.9l.05.41a.62.62 0 0 1 .7.53c.06.51-.36.78-.82.84s-.94-.1-1-.62a.58.58 0 0 1 .41-.66l-.05-.42M162.71 12.72L162.59 12.31 161.54 12.61 161.24 11.55 162.29 11.26 162.17 10.85 159.84 11.51 159.96 11.92 160.89 11.66 161.19 12.71 160.26 12.98 160.38 13.39 162.71 12.72M160.13 11.21L159.84 10.51 161.74 9.74 161.58 9.35 159.68 10.11 159.4 9.4 159.06 9.54 159.78 11.36 160.13 11.21M140.02 3.35L149.13 10.68 157.32 3.35 152.78 13.71 157.01 17.31 152.28 17.66 152.24 22.54 149.3 19.45 139.67 28.04 144.69 18.16 140.05 18.47 145.41 13.79 140.02 3.35"/>
    <path class="cls-4" d="M0,37.93a15.2,15.2,0,0,0,2,.17C8,38.1,9.7,36,9.7,31.47V8.38h-6V31.17c0,1.66-1.11,2-2.34,2A4.15,4.15,0,0,1,0,33v5ZM9.7,0h-6V5h6V0Z"/>
    <path d="M34.06,8.38H28V19.9c0,4.46-1.4,6.29-4.68,6.29-2.81,0-3.87-1.79-3.87-5.4V8.38h-6V21.9c0,5.44,1.62,9.06,8,9.06a7.84,7.84,0,0,0,6.72-3.66h.13v3.06h5.74v-22Z"/>
    <path class="cls-4" d="M58.29 8.38H52.55v2.93h-.08C51 8.76 48.81 7.78 45.91 7.78c-6.17 0-9.44 5.19-9.44 10.89 0 6 2.81 11.06 9.4 11.06a7.43 7.43 0 0 0 6.59-3.4h.08v2.89c0 3.15-1.49 5.44-4.85 5.44-2.13 0-4-.77-4.51-3h-6c.3 5 5.36 7.06 9.7 7.06 10.12 0 11.4-6.12 11.4-9.74V8.38zM47.4 25.17c-3.7 0-4.89-3.44-4.89-6.59S44 12.33 47.4 12.33c3.91 0 5.15 3.19 5.15 6.76 0 3.15-1.7 6.08-5.15 6.08zM82.48 20.84c.42-6.76-3.19-13.06-10.67-13.06-6.68 0-11.23 5-11.23 11.61 0 6.8 4.3 11.57 11.23 11.57 5 0 8.59-2.21 10.29-7.4H76.78c-.38 1.36-2.34 2.85-4.76 2.85-3.36 0-5.23-1.74-5.4-5.57zM66.62 17a4.76 4.76 0 0 1 5-4.68c2.93 0 4.25 1.62 4.81 4.68z"/>
    <path d="M84.56,30.36h6V18.84c0-4.47,1.4-6.29,4.68-6.29,2.81,0,3.87,1.79,3.87,5.4V30.36h6V16.84c0-5.44-1.62-9.06-8-9.06a7.84,7.84,0,0,0-6.72,3.66H90.3V8.38H84.56v22Z"/>
    <path class="cls-4" d="M124,30.36h5.74V0h-6V11.06h0a7.69,7.69,0,0,0-6.55-3.27c-6.46,0-9.74,5.49-9.74,11.4,0,6.08,3.23,11.78,9.87,11.78,2.81,0,5.27-1,6.68-3.4H124v2.81Zm-.09-11.06c0,3.62-1.19,7.1-5.19,7.1-3.74,0-5.32-3.62-5.32-7.06,0-3.62,1.36-7,5.32-7s5.19,3.4,5.19,7Z"/>
    <path d="M176.94,8.42H172.6V6.51c0-2.38,0-4.25,2.93-4.25a11,11,0,0,1,2,.21V.17A14.06,14.06,0,0,0,175.24,0c-4.29,0-5.36,2.64-5.32,6.42v2h-3.74v2.25h3.74V30.36h2.68V10.67h4.34V8.42Z"/>
    <path class="cls-4" d="M187.05,7.78c-6.72,0-10.38,5.32-10.38,11.61S180.33,31,187.05,31s10.38-5.32,10.38-11.61S193.77,7.78,187.05,7.78Zm0,2.25c5.15,0,7.7,4.68,7.7,9.36s-2.55,9.36-7.7,9.36-7.7-4.68-7.7-9.36,2.55-9.36,7.7-9.36Z"/>
    <path d="M199.72 30.36h2.68V18.67a7.56 7.56 0 0 1 8.16-7.87V8.12a8.11 8.11 0 0 0-8.29 5.44h-.09V8.42h-2.47V30.36zM227.23 14.84c-.17-4.76-3.66-7.06-8-7.06-3.87 0-8.25 1.7-8.25 6.17 0 3.74 2.64 4.93 6.12 5.87l3.44.76c2.42.6 4.81 1.45 4.81 4 0 3.06-3.49 4.17-6 4.17-3.57 0-6.25-1.87-6.46-5.49h-2.68c.43 5.36 3.91 7.74 9 7.74 4.08 0 8.8-1.83 8.8-6.59 0-3.83-3.19-5.61-6.25-6.08l-3.57-.81c-1.83-.47-4.55-1.32-4.55-3.7 0-2.85 2.81-3.78 5.19-3.78 3.06 0 5.61 1.49 5.74 4.81zM248.33 15.31c-.59-5-4.21-7.53-8.89-7.53-6.72 0-10.38 5.32-10.38 11.61S232.72 31 239.44 31c4.89 0 8.33-3.23 9.06-8.51h-2.68a6.54 6.54 0 0 1-6.38 6.25c-5.15 0-7.7-4.68-7.7-9.36s2.55-9.36 7.7-9.36c3.49 0 5.49 2 6.21 5.27zM250.49 30.36h2.68V17.56c.08-4.29 2.64-7.53 6.89-7.53s5.57 2.85 5.57 6.63V30.36h2.68V16.24c0-5.23-1.87-8.46-8-8.46a7.44 7.44 0 0 0-7 4.42h-.08V0h-2.68V30.36zM275.91 1.83h-2.68V8.42H269.4v2.25h3.83v15c0 3.74 1.19 4.93 4.76 4.93.81 0 1.57-.08 2.38-.08v-2.3a20.8 20.8 0 0 1-2.3.13c-1.91-.13-2.17-1.15-2.17-2.89V10.67h4.46V8.42h-4.46V1.83z"/>
  </g>
  <g id="Ebene_2" data-name="Ebene 2">
    <path d="M139.28 41.32l2.66 10.25h0l2.85-10.25h1.39l2.87 10.25h0l2.67-10.25h1.12L149.68 53H148.5l-3-10.48h0l-3 10.48h-1.21l-3.25-11.71zM155.39 41.32V43h-1V41.32zm0 3.25V53h-1V44.57zM158.32 44.57v2h0A3.25 3.25 0 0 1 159.58 45a3.2 3.2 0 0 1 2-.51v1a3.13 3.13 0 0 0-1.28.19 2.88 2.88 0 0 0-1 .63 2.85 2.85 0 0 0-.65 1 3.26 3.26 0 0 0-.23 1.24V53h-1V44.57zM168.69 45.44V53h-1V45.44h-1.44v-.87h1.44v-.77a5.6 5.6 0 0 1 .08-1A1.93 1.93 0 0 1 168 42a1.5 1.5 0 0 1 .63-.51 2.52 2.52 0 0 1 1-.18l.43 0 .44 0v.88l-.39-.06-.36 0a1.33 1.33 0 0 0-.66.13.81.81 0 0 0-.34.35 1.34 1.34 0 0 0-.12.52c0 .2 0 .41 0 .64v.74h1.67v.87zM176.63 44.68a3.73 3.73 0 0 1 1.25 1 4.2 4.2 0 0 1 .77 1.42 5.85 5.85 0 0 1 0 3.46 4.21 4.21 0 0 1-.77 1.42 3.65 3.65 0 0 1-1.25 1 4.34 4.34 0 0 1-3.43 0 3.64 3.64 0 0 1-1.25-1 4.19 4.19 0 0 1-.77-1.42 5.83 5.83 0 0 1 0-3.46 4.18 4.18 0 0 1 .77-1.42 3.73 3.73 0 0 1 1.25-1 4.26 4.26 0 0 1 3.43 0zm-3 .82a2.86 2.86 0 0 0-.93.82 3.74 3.74 0 0 0-.56 1.16 4.72 4.72 0 0 0 0 2.64 3.72 3.72 0 0 0 .56 1.16 2.85 2.85 0 0 0 .93.82 2.85 2.85 0 0 0 2.59 0 2.85 2.85 0 0 0 .93-.82 3.72 3.72 0 0 0 .56-1.16 4.72 4.72 0 0 0 0-2.64 3.74 3.74 0 0 0-.56-1.16 2.86 2.86 0 0 0-.93-.82 2.85 2.85 0 0 0-2.59 0zm-.71-4.05H174v1.66h-1.12zm2.9 0h1.12v1.66h-1.12zM181.41 44.57v2h0A3.25 3.25 0 0 1 182.67 45a3.2 3.2 0 0 1 2-.51v1a3.13 3.13 0 0 0-1.28.19 2.88 2.88 0 0 0-1 .63 2.85 2.85 0 0 0-.65 1 3.26 3.26 0 0 0-.23 1.24V53h-1V44.57zM191.83 53V51.42h0a2.44 2.44 0 0 1-.48.75 3.14 3.14 0 0 1-.73.58 3.81 3.81 0 0 1-.88.37 3.44 3.44 0 0 1-.93.13 3.75 3.75 0 0 1-1.68-.35 3.37 3.37 0 0 1-1.19-1 4.17 4.17 0 0 1-.71-1.43 6.51 6.51 0 0 1 0-3.43 4.17 4.17 0 0 1 .71-1.43 3.45 3.45 0 0 1 1.19-1 3.69 3.69 0 0 1 1.68-.36 3.76 3.76 0 0 1 .93.11 3.14 3.14 0 0 1 .84.35 3 3 0 0 1 .7.58 2.45 2.45 0 0 1 .47.8h0V41.32h1V53zm-5.67-2.93a3.58 3.58 0 0 0 .49 1.16 2.7 2.7 0 0 0 .86.83 2.37 2.37 0 0 0 1.26.32 2.77 2.77 0 0 0 1.39-.32 2.73 2.73 0 0 0 .92-.83 3.4 3.4 0 0 0 .51-1.16 5.52 5.52 0 0 0 0-2.61 3.41 3.41 0 0 0-.51-1.16 2.73 2.73 0 0 0-.92-.83 2.78 2.78 0 0 0-1.39-.32 2.38 2.38 0 0 0-1.26.32 2.7 2.7 0 0 0-.86.83 3.59 3.59 0 0 0-.49 1.16 5.52 5.52 0 0 0 0 2.61zM195.51 50.23a3.17 3.17 0 0 0 .5 1.07 2.85 2.85 0 0 0 .87.79 2.43 2.43 0 0 0 1.26.31 2.51 2.51 0 0 0 1.77-.59 3.1 3.1 0 0 0 .88-1.57h1a4.13 4.13 0 0 1-1.21 2.23 3.6 3.6 0 0 1-2.48.79 3.94 3.94 0 0 1-1.73-.35 3.18 3.18 0 0 1-1.19-1 4.2 4.2 0 0 1-.68-1.43 6.49 6.49 0 0 1-.22-1.71 6.15 6.15 0 0 1 .22-1.64 4.4 4.4 0 0 1 .68-1.44 3.42 3.42 0 0 1 1.19-1 3.66 3.66 0 0 1 1.73-.38 3.34 3.34 0 0 1 2.91 1.48 4.45 4.45 0 0 1 .65 1.53 6.73 6.73 0 0 1 .16 1.75h-6.51A4.56 4.56 0 0 0 195.51 50.23zm5.12-3.16a3.11 3.11 0 0 0-.53-1 2.65 2.65 0 0 0-.84-.67 2.4 2.4 0 0 0-1.12-.25 2.44 2.44 0 0 0-1.13.25 2.65 2.65 0 0 0-.84.67 3.36 3.36 0 0 0-.55 1 4.76 4.76 0 0 0-.27 1.12h5.48A3.72 3.72 0 0 0 200.63 47.08zM204.21 44.57v2h0A3.25 3.25 0 0 1 205.46 45a3.2 3.2 0 0 1 2-.51v1a3.13 3.13 0 0 0-1.28.19 2.88 2.88 0 0 0-1 .63 2.85 2.85 0 0 0-.65 1 3.26 3.26 0 0 0-.23 1.24V53h-1V44.57zM209.74 44.57V46h0a2.48 2.48 0 0 1 1-1.24 3.08 3.08 0 0 1 1.66-.47 4.17 4.17 0 0 1 1.48.23 2.36 2.36 0 0 1 1 .65 2.42 2.42 0 0 1 .51 1 5.76 5.76 0 0 1 .15 1.36V53h-1V47.75a4.9 4.9 0 0 0-.1-1 2.15 2.15 0 0 0-.34-.81 1.68 1.68 0 0 0-.66-.54 2.45 2.45 0 0 0-1-.2 2.63 2.63 0 0 0-1.11.22 2.4 2.4 0 0 0-.82.61 2.79 2.79 0 0 0-.52.92 3.73 3.73 0 0 0-.21 1.16V53h-1V44.57zM230.3 41.32v1h-4.08V53H225.1V42.27H221v-1zM229.6 45.88a2.42 2.42 0 0 1 .71-.89 3 3 0 0 1 1.06-.51 5.15 5.15 0 0 1 1.34-.16 5.92 5.92 0 0 1 1.12.11 2.71 2.71 0 0 1 1 .4 2.2 2.2 0 0 1 .72.83 3 3 0 0 1 .28 1.39v4.49a.54.54 0 0 0 .61.62.8.8 0 0 0 .33-.07V53l-.32 0-.35 0a1.56 1.56 0 0 1-.63-.11.84.84 0 0 1-.37-.3 1.13 1.13 0 0 1-.17-.47 4 4 0 0 1 0-.6h0a7.07 7.07 0 0 1-.57.73 2.87 2.87 0 0 1-.64.53 3 3 0 0 1-.8.33 4.42 4.42 0 0 1-1.07.11 4.25 4.25 0 0 1-1.11-.14 2.48 2.48 0 0 1-.9-.44 2.11 2.11 0 0 1-.61-.77 2.57 2.57 0 0 1-.22-1.11 2.19 2.19 0 0 1 .39-1.39 2.48 2.48 0 0 1 1-.76 6 6 0 0 1 1.46-.37l1.65-.21L234 48a1 1 0 0 0 .41-.17.8.8 0 0 0 .25-.34 1.44 1.44 0 0 0 .09-.56 1.88 1.88 0 0 0-.17-.86 1.37 1.37 0 0 0-.48-.53 1.93 1.93 0 0 0-.71-.27 4.8 4.8 0 0 0-.86-.07 2.61 2.61 0 0 0-1.61.47 1.83 1.83 0 0 0-.66 1.5h-1A3.43 3.43 0 0 1 229.6 45.88zm5.17 2.53a.59.59 0 0 1-.38.26 3.82 3.82 0 0 1-.49.11q-.66.12-1.35.21a7.47 7.47 0 0 0-1.27.27 2.5 2.5 0 0 0-.94.52 1.23 1.23 0 0 0-.37 1 1.5 1.5 0 0 0 .16.7 1.69 1.69 0 0 0 .42.52 1.81 1.81 0 0 0 .61.34 2.2 2.2 0 0 0 .71.12 3.55 3.55 0 0 0 1.13-.18 2.78 2.78 0 0 0 .94-.52 2.5 2.5 0 0 0 .88-2V48.4zM238.94 41.32V53h-1V41.32zM241.69 50.23a3.17 3.17 0 0 0 .5 1.07 2.85 2.85 0 0 0 .87.79 2.43 2.43 0 0 0 1.26.31 2.51 2.51 0 0 0 1.77-.59 3.1 3.1 0 0 0 .88-1.57h1a4.13 4.13 0 0 1-1.21 2.23 3.6 3.6 0 0 1-2.48.79 3.94 3.94 0 0 1-1.73-.35 3.18 3.18 0 0 1-1.19-1 4.2 4.2 0 0 1-.68-1.43 6.49 6.49 0 0 1-.22-1.71 6.15 6.15 0 0 1 .22-1.64 4.4 4.4 0 0 1 .68-1.44 3.42 3.42 0 0 1 1.19-1 3.66 3.66 0 0 1 1.73-.38 3.34 3.34 0 0 1 2.91 1.48 4.45 4.45 0 0 1 .65 1.53 6.73 6.73 0 0 1 .16 1.75h-6.51A4.56 4.56 0 0 0 241.69 50.23zm5.12-3.16a3.11 3.11 0 0 0-.53-1 2.65 2.65 0 0 0-.84-.67 2.4 2.4 0 0 0-1.12-.25 2.44 2.44 0 0 0-1.13.25 2.65 2.65 0 0 0-.84.67 3.36 3.36 0 0 0-.55 1 4.76 4.76 0 0 0-.27 1.12H247A3.72 3.72 0 0 0 246.81 47.08zM250.46 44.57V46h0a2.48 2.48 0 0 1 1-1.24 3.08 3.08 0 0 1 1.66-.47 4.17 4.17 0 0 1 1.48.23 2.36 2.36 0 0 1 1 .65 2.42 2.42 0 0 1 .51 1 5.76 5.76 0 0 1 .15 1.36V53h-1V47.75a4.9 4.9 0 0 0-.1-1 2.15 2.15 0 0 0-.34-.81 1.68 1.68 0 0 0-.66-.54 2.45 2.45 0 0 0-1-.2 2.63 2.63 0 0 0-1.11.22 2.4 2.4 0 0 0-.82.61 2.79 2.79 0 0 0-.52.92 3.73 3.73 0 0 0-.21 1.16V53h-1V44.57zM261.61 44.57v.87h-1.72v5.71a1.84 1.84 0 0 0 .14.79q.14.29.7.32a7.91 7.91 0 0 0 .89 0v.87l-.46 0-.46 0a1.53 1.53 0 0 1-1.84-1.89V45.44h-1.48v-.87h1.48V42h1v2.54zM263.86 50.23a3.17 3.17 0 0 0 .5 1.07 2.85 2.85 0 0 0 .87.79 2.43 2.43 0 0 0 1.26.31 2.51 2.51 0 0 0 1.77-.59 3.1 3.1 0 0 0 .88-1.57h1A4.13 4.13 0 0 1 269 52.47a3.6 3.6 0 0 1-2.48.79 3.94 3.94 0 0 1-1.73-.35 3.18 3.18 0 0 1-1.19-1 4.2 4.2 0 0 1-.68-1.43 6.49 6.49 0 0 1-.22-1.71 6.15 6.15 0 0 1 .22-1.64 4.4 4.4 0 0 1 .68-1.44 3.42 3.42 0 0 1 1.19-1 3.66 3.66 0 0 1 1.73-.38 3.34 3.34 0 0 1 2.91 1.48 4.45 4.45 0 0 1 .65 1.53 6.73 6.73 0 0 1 .16 1.75h-6.51A4.56 4.56 0 0 0 263.86 50.23zM269 47.08a3.11 3.11 0 0 0-.53-1 2.65 2.65 0 0 0-.84-.67 2.4 2.4 0 0 0-1.12-.25 2.44 2.44 0 0 0-1.13.25 2.65 2.65 0 0 0-.84.67 3.36 3.36 0 0 0-.55 1 4.76 4.76 0 0 0-.27 1.12h5.48A3.72 3.72 0 0 0 269 47.08zM272.22 51.29h1.38V53h-1.38z"/>
  </g>
</svg>
