<svg id="visual" viewBox="0 0 960 200" width="960" height="200" xmlns="http://www.w3.org/2000/svg" xmlns:xlink="http://www.w3.org/1999/xlink" version="1.1"><rect x="0" y="0" width="960" height="200" fill="#ff6680"></rect><path d="M0 102L22.8 107C45.7 112 91.3 122 137 125.2C182.7 128.3 228.3 124.7 274 116.3C319.7 108 365.3 95 411.2 83.5C457 72 503 62 548.8 64.7C594.7 67.3 640.3 82.7 686 86.5C731.7 90.3 777.3 82.7 823 77.3C868.7 72 914.3 69 937.2 67.5L960 66L960 201L937.2 201C914.3 201 868.7 201 823 201C777.3 201 731.7 201 686 201C640.3 201 594.7 201 548.8 201C503 201 457 201 411.2 201C365.3 201 319.7 201 274 201C228.3 201 182.7 201 137 201C91.3 201 45.7 201 22.8 201L0 201Z" fill="#0fbd8c" stroke-linecap="round" stroke-linejoin="miter"></path></svg>