<svg id="visual" viewBox="0 0 960 200" width="960" height="200" xmlns="http://www.w3.org/2000/svg" xmlns:xlink="http://www.w3.org/1999/xlink" version="1.1"><path d="M0 45L8.8 43.7C17.7 42.3 35.3 39.7 53.2 39.7C71 39.7 89 42.3 106.8 43.7C124.7 45 142.3 45 160 45.3C177.7 45.7 195.3 46.3 213.2 44.7C231 43 249 39 266.8 38C284.7 37 302.3 39 320 40.3C337.7 41.7 355.3 42.3 373.2 42.7C391 43 409 43 426.8 41.3C444.7 39.7 462.3 36.3 480 34.3C497.7 32.3 515.3 31.7 533.2 33C551 34.3 569 37.7 586.8 38.7C604.7 39.7 622.3 38.3 640 38.7C657.7 39 675.3 41 693.2 40.7C711 40.3 729 37.7 746.8 38.3C764.7 39 782.3 43 800 43.3C817.7 43.7 835.3 40.3 853.2 39.3C871 38.3 889 39.7 906.8 41.3C924.7 43 942.3 45 951.2 46L960 47L960 0L951.2 0C942.3 0 924.7 0 906.8 0C889 0 871 0 853.2 0C835.3 0 817.7 0 800 0C782.3 0 764.7 0 746.8 0C729 0 711 0 693.2 0C675.3 0 657.7 0 640 0C622.3 0 604.7 0 586.8 0C569 0 551 0 533.2 0C515.3 0 497.7 0 480 0C462.3 0 444.7 0 426.8 0C409 0 391 0 373.2 0C355.3 0 337.7 0 320 0C302.3 0 284.7 0 266.8 0C249 0 231 0 213.2 0C195.3 0 177.7 0 160 0C142.3 0 124.7 0 106.8 0C89 0 71 0 53.2 0C35.3 0 17.7 0 8.8 0L0 0Z" fill="#ffab1a"></path><path d="M0 101L8.8 102C17.7 103 35.3 105 53.2 103.3C71 101.7 89 96.3 106.8 95.3C124.7 94.3 142.3 97.7 160 98.7C177.7 99.7 195.3 98.3 213.2 97C231 95.7 249 94.3 266.8 94.3C284.7 94.3 302.3 95.7 320 100C337.7 104.3 355.3 111.7 373.2 113.3C391 115 409 111 426.8 108C444.7 105 462.3 103 480 100.7C497.7 98.3 515.3 95.7 533.2 92C551 88.3 569 83.7 586.8 84.7C604.7 85.7 622.3 92.3 640 93.3C657.7 94.3 675.3 89.7 693.2 90.7C711 91.7 729 98.3 746.8 102.3C764.7 106.3 782.3 107.7 800 106.7C817.7 105.7 835.3 102.3 853.2 97.7C871 93 889 87 906.8 86C924.7 85 942.3 89 951.2 91L960 93L960 45L951.2 44C942.3 43 924.7 41 906.8 39.3C889 37.7 871 36.3 853.2 37.3C835.3 38.3 817.7 41.7 800 41.3C782.3 41 764.7 37 746.8 36.3C729 35.7 711 38.3 693.2 38.7C675.3 39 657.7 37 640 36.7C622.3 36.3 604.7 37.7 586.8 36.7C569 35.7 551 32.3 533.2 31C515.3 29.7 497.7 30.3 480 32.3C462.3 34.3 444.7 37.7 426.8 39.3C409 41 391 41 373.2 40.7C355.3 40.3 337.7 39.7 320 38.3C302.3 37 284.7 35 266.8 36C249 37 231 41 213.2 42.7C195.3 44.3 177.7 43.7 160 43.3C142.3 43 124.7 43 106.8 41.7C89 40.3 71 37.7 53.2 37.7C35.3 37.7 17.7 40.3 8.8 41.7L0 43Z" fill="#d8b508"></path><path d="M0 129L8.8 129.7C17.7 130.3 35.3 131.7 53.2 128.7C71 125.7 89 118.3 106.8 117.3C124.7 116.3 142.3 121.7 160 124.3C177.7 127 195.3 127 213.2 125C231 123 249 119 266.8 118.3C284.7 117.7 302.3 120.3 320 124.3C337.7 128.3 355.3 133.7 373.2 136.7C391 139.7 409 140.3 426.8 139C444.7 137.7 462.3 134.3 480 132C497.7 129.7 515.3 128.3 533.2 125.3C551 122.3 569 117.7 586.8 117.7C604.7 117.7 622.3 122.3 640 122.7C657.7 123 675.3 119 693.2 119.3C711 119.7 729 124.3 746.8 128C764.7 131.7 782.3 134.3 800 135.3C817.7 136.3 835.3 135.7 853.2 131.7C871 127.7 889 120.3 906.8 117.3C924.7 114.3 942.3 115.7 951.2 116.3L960 117L960 91L951.2 89C942.3 87 924.7 83 906.8 84C889 85 871 91 853.2 95.7C835.3 100.3 817.7 103.7 800 104.7C782.3 105.7 764.7 104.3 746.8 100.3C729 96.3 711 89.7 693.2 88.7C675.3 87.7 657.7 92.3 640 91.3C622.3 90.3 604.7 83.7 586.8 82.7C569 81.7 551 86.3 533.2 90C515.3 93.7 497.7 96.3 480 98.7C462.3 101 444.7 103 426.8 106C409 109 391 113 373.2 111.3C355.3 109.7 337.7 102.3 320 98C302.3 93.7 284.7 92.3 266.8 92.3C249 92.3 231 93.7 213.2 95C195.3 96.3 177.7 97.7 160 96.7C142.3 95.7 124.7 92.3 106.8 93.3C89 94.3 71 99.7 53.2 101.3C35.3 103 17.7 101 8.8 100L0 99Z" fill="#b0bc1f"></path><path d="M0 149L8.8 151.3C17.7 153.7 35.3 158.3 53.2 156C71 153.7 89 144.3 106.8 142C124.7 139.7 142.3 144.3 160 146.3C177.7 148.3 195.3 147.7 213.2 145.7C231 143.7 249 140.3 266.8 141C284.7 141.7 302.3 146.3 320 150C337.7 153.7 355.3 156.3 373.2 159.3C391 162.3 409 165.7 426.8 164.3C444.7 163 462.3 157 480 154C497.7 151 515.3 151 533.2 149C551 147 569 143 586.8 144C604.7 145 622.3 151 640 150C657.7 149 675.3 141 693.2 140.3C711 139.7 729 146.3 746.8 150C764.7 153.7 782.3 154.3 800 155C817.7 155.7 835.3 156.3 853.2 153.3C871 150.3 889 143.7 906.8 141C924.7 138.3 942.3 139.7 951.2 140.3L960 141L960 115L951.2 114.3C942.3 113.7 924.7 112.3 906.8 115.3C889 118.3 871 125.7 853.2 129.7C835.3 133.7 817.7 134.3 800 133.3C782.3 132.3 764.7 129.7 746.8 126C729 122.3 711 117.7 693.2 117.3C675.3 117 657.7 121 640 120.7C622.3 120.3 604.7 115.7 586.8 115.7C569 115.7 551 120.3 533.2 123.3C515.3 126.3 497.7 127.7 480 130C462.3 132.3 444.7 135.7 426.8 137C409 138.3 391 137.7 373.2 134.7C355.3 131.7 337.7 126.3 320 122.3C302.3 118.3 284.7 115.7 266.8 116.3C249 117 231 121 213.2 123C195.3 125 177.7 125 160 122.3C142.3 119.7 124.7 114.3 106.8 115.3C89 116.3 71 123.7 53.2 126.7C35.3 129.7 17.7 128.3 8.8 127.7L0 127Z" fill="#87bf3c"></path><path d="M0 201L8.8 201C17.7 201 35.3 201 53.2 201C71 201 89 201 106.8 201C124.7 201 142.3 201 160 201C177.7 201 195.3 201 213.2 201C231 201 249 201 266.8 201C284.7 201 302.3 201 320 201C337.7 201 355.3 201 373.2 201C391 201 409 201 426.8 201C444.7 201 462.3 201 480 201C497.7 201 515.3 201 533.2 201C551 201 569 201 586.8 201C604.7 201 622.3 201 640 201C657.7 201 675.3 201 693.2 201C711 201 729 201 746.8 201C764.7 201 782.3 201 800 201C817.7 201 835.3 201 853.2 201C871 201 889 201 906.8 201C924.7 201 942.3 201 951.2 201L960 201L960 139L951.2 138.3C942.3 137.7 924.7 136.3 906.8 139C889 141.7 871 148.3 853.2 151.3C835.3 154.3 817.7 153.7 800 153C782.3 152.3 764.7 151.7 746.8 148C729 144.3 711 137.7 693.2 138.3C675.3 139 657.7 147 640 148C622.3 149 604.7 143 586.8 142C569 141 551 145 533.2 147C515.3 149 497.7 149 480 152C462.3 155 444.7 161 426.8 162.3C409 163.7 391 160.3 373.2 157.3C355.3 154.3 337.7 151.7 320 148C302.3 144.3 284.7 139.7 266.8 139C249 138.3 231 141.7 213.2 143.7C195.3 145.7 177.7 146.3 160 144.3C142.3 142.3 124.7 137.7 106.8 140C89 142.3 71 151.7 53.2 154C35.3 156.3 17.7 151.7 8.8 149.3L0 147Z" fill="#59c059"></path></svg>