<svg id="visual" viewBox="0 0 960 540" width="960" height="540" xmlns="http://www.w3.org/2000/svg" xmlns:xlink="http://www.w3.org/1999/xlink" version="1.1" style="background-color: #9966ff;"><path d="M0 317L22.8 329.8C45.7 342.7 91.3 368.3 137 370.2C182.7 372 228.3 350 274 337.5C319.7 325 365.3 322 411.2 320.7C457 319.3 503 319.7 548.8 329C594.7 338.3 640.3 356.7 686 358.3C731.7 360 777.3 345 823 339.7C868.7 334.3 914.3 338.7 937.2 340.8L960 343L960 541L937.2 541C914.3 541 868.7 541 823 541C777.3 541 731.7 541 686 541C640.3 541 594.7 541 548.8 541C503 541 457 541 411.2 541C365.3 541 319.7 541 274 541C228.3 541 182.7 541 137 541C91.3 541 45.7 541 22.8 541L0 541Z" fill="#9966ff"></path><path d="M0 363L22.8 374.3C45.7 385.7 91.3 408.3 137 417.8C182.7 427.3 228.3 423.7 274 423C319.7 422.3 365.3 424.7 411.2 425.2C457 425.7 503 424.3 548.8 413.2C594.7 402 640.3 381 686 374.8C731.7 368.7 777.3 377.3 823 385.5C868.7 393.7 914.3 401.3 937.2 405.2L960 409L960 541L937.2 541C914.3 541 868.7 541 823 541C777.3 541 731.7 541 686 541C640.3 541 594.7 541 548.8 541C503 541 457 541 411.2 541C365.3 541 319.7 541 274 541C228.3 541 182.7 541 137 541C91.3 541 45.7 541 22.8 541L0 541Z" fill="#6776e8"></path><path d="M0 408L22.8 413.7C45.7 419.3 91.3 430.7 137 430.7C182.7 430.7 228.3 419.3 274 418.7C319.7 418 365.3 428 411.2 428.7C457 429.3 503 420.7 548.8 413.8C594.7 407 640.3 402 686 409.3C731.7 416.7 777.3 436.3 823 444.7C868.7 453 914.3 450 937.2 448.5L960 447L960 541L937.2 541C914.3 541 868.7 541 823 541C777.3 541 731.7 541 686 541C640.3 541 594.7 541 548.8 541C503 541 457 541 411.2 541C365.3 541 319.7 541 274 541C228.3 541 182.7 541 137 541C91.3 541 45.7 541 22.8 541L0 541Z" fill="#468cf2"></path><path d="M0 478L22.8 477.8C45.7 477.7 91.3 477.3 137 470.8C182.7 464.3 228.3 451.7 274 448.2C319.7 444.7 365.3 450.3 411.2 455.8C457 461.3 503 466.7 548.8 469.3C594.7 472 640.3 472 686 467.5C731.7 463 777.3 454 823 450.7C868.7 447.3 914.3 449.7 937.2 450.8L960 452L960 541L937.2 541C914.3 541 868.7 541 823 541C777.3 541 731.7 541 686 541C640.3 541 594.7 541 548.8 541C503 541 457 541 411.2 541C365.3 541 319.7 541 274 541C228.3 541 182.7 541 137 541C91.3 541 45.7 541 22.8 541L0 541Z" fill="#289ff6"></path><path d="M0 480L22.8 480.7C45.7 481.3 91.3 482.7 137 483.5C182.7 484.3 228.3 484.7 274 486.7C319.7 488.7 365.3 492.3 411.2 493.8C457 495.3 503 494.7 548.8 492C594.7 489.3 640.3 484.7 686 481.7C731.7 478.7 777.3 477.3 823 477.8C868.7 478.3 914.3 480.7 937.2 481.8L960 483L960 541L937.2 541C914.3 541 868.7 541 823 541C777.3 541 731.7 541 686 541C640.3 541 594.7 541 548.8 541C503 541 457 541 411.2 541C365.3 541 319.7 541 274 541C228.3 541 182.7 541 137 541C91.3 541 45.7 541 22.8 541L0 541Z" fill="#25b0f5"></path></svg>