<svg id="visual" viewBox="0 0 960 540" width="960" height="540" xmlns="http://www.w3.org/2000/svg" xmlns:xlink="http://www.w3.org/1999/xlink" version="1.1"><rect x="0" y="0" width="960" height="540" fill="#ff6680"></rect><path d="M0 367L22.8 361.7C45.7 356.3 91.3 345.7 137 350.3C182.7 355 228.3 375 274 371.7C319.7 368.3 365.3 341.7 411.2 340.3C457 339 503 363 548.8 369.7C594.7 376.3 640.3 365.7 686 355.3C731.7 345 777.3 335 823 332C868.7 329 914.3 333 937.2 335L960 337L960 541L937.2 541C914.3 541 868.7 541 823 541C777.3 541 731.7 541 686 541C640.3 541 594.7 541 548.8 541C503 541 457 541 411.2 541C365.3 541 319.7 541 274 541C228.3 541 182.7 541 137 541C91.3 541 45.7 541 22.8 541L0 541Z" fill="#ff6680"></path><path d="M0 429L22.8 427.7C45.7 426.3 91.3 423.7 137 420.2C182.7 416.7 228.3 412.3 274 414.2C319.7 416 365.3 424 411.2 424C457 424 503 416 548.8 406C594.7 396 640.3 384 686 382.8C731.7 381.7 777.3 391.3 823 400C868.7 408.7 914.3 416.3 937.2 420.2L960 424L960 541L937.2 541C914.3 541 868.7 541 823 541C777.3 541 731.7 541 686 541C640.3 541 594.7 541 548.8 541C503 541 457 541 411.2 541C365.3 541 319.7 541 274 541C228.3 541 182.7 541 137 541C91.3 541 45.7 541 22.8 541L0 541Z" fill="#ef71b9"></path><path d="M0 419L22.8 418.8C45.7 418.7 91.3 418.3 137 419.5C182.7 420.7 228.3 423.3 274 425.3C319.7 427.3 365.3 428.7 411.2 429C457 429.3 503 428.7 548.8 426.5C594.7 424.3 640.3 420.7 686 421.8C731.7 423 777.3 429 823 425C868.7 421 914.3 407 937.2 400L960 393L960 541L937.2 541C914.3 541 868.7 541 823 541C777.3 541 731.7 541 686 541C640.3 541 594.7 541 548.8 541C503 541 457 541 411.2 541C365.3 541 319.7 541 274 541C228.3 541 182.7 541 137 541C91.3 541 45.7 541 22.8 541L0 541Z" fill="#c389e5"></path><path d="M0 448L22.8 454.2C45.7 460.3 91.3 472.7 137 477C182.7 481.3 228.3 477.7 274 471.5C319.7 465.3 365.3 456.7 411.2 457.5C457 458.3 503 468.7 548.8 471.5C594.7 474.3 640.3 469.7 686 462.7C731.7 455.7 777.3 446.3 823 449.3C868.7 452.3 914.3 467.7 937.2 475.3L960 483L960 541L937.2 541C914.3 541 868.7 541 823 541C777.3 541 731.7 541 686 541C640.3 541 594.7 541 548.8 541C503 541 457 541 411.2 541C365.3 541 319.7 541 274 541C228.3 541 182.7 541 137 541C91.3 541 45.7 541 22.8 541L0 541Z" fill="#81a0fa"></path><path d="M0 513L22.8 511.2C45.7 509.3 91.3 505.7 137 499.8C182.7 494 228.3 486 274 482.2C319.7 478.3 365.3 478.7 411.2 479.2C457 479.7 503 480.3 548.8 483.3C594.7 486.3 640.3 491.7 686 491.8C731.7 492 777.3 487 823 488.2C868.7 489.3 914.3 496.7 937.2 500.3L960 504L960 541L937.2 541C914.3 541 868.7 541 823 541C777.3 541 731.7 541 686 541C640.3 541 594.7 541 548.8 541C503 541 457 541 411.2 541C365.3 541 319.7 541 274 541C228.3 541 182.7 541 137 541C91.3 541 45.7 541 22.8 541L0 541Z" fill="#25b0f5"></path></svg>