<svg id="visual" viewBox="0 0 960 200" width="960" height="200" xmlns="http://www.w3.org/2000/svg" xmlns:xlink="http://www.w3.org/1999/xlink" version="1.1"><path d="M0 142L137 129L274 106L411 140L549 131L686 153L823 148L960 105L960 0L823 0L686 0L549 0L411 0L274 0L137 0L0 0Z" fill="#5cb1d6"></path><path d="M0 119L137 121L274 125L411 135L549 85L686 112L823 88L960 113L960 0L823 0L686 0L549 0L411 0L274 0L137 0L0 0Z" fill="#27b9ce"></path><path d="M0 106L137 87L274 60L411 63L549 98L686 59L823 63L960 105L960 0L823 0L686 0L549 0L411 0L274 0L137 0L0 0Z" fill="#00bfb7"></path><path d="M0 49L137 59L274 77L411 72L549 48L686 39L823 59L960 52L960 0L823 0L686 0L549 0L411 0L274 0L137 0L0 0Z" fill="#10c290"></path><path d="M0 41L137 31L274 43L411 39L549 42L686 18L823 22L960 23L960 0L823 0L686 0L549 0L411 0L274 0L137 0L0 0Z" fill="#59c059"></path></svg>