<svg id="visual" viewBox="0 0 960 200" width="960" height="200" xmlns="http://www.w3.org/2000/svg" xmlns:xlink="http://www.w3.org/1999/xlink" version="1.1"><path d="M0 49L87 27L175 41L262 73L349 45L436 29L524 57L611 63L698 33L785 49L873 39L960 29L960 0L873 0L785 0L698 0L611 0L524 0L436 0L349 0L262 0L175 0L87 0L0 0Z" fill="#0fbd8c"></path><path d="M0 79L87 61L175 67L262 89L349 65L436 55L524 77L611 75L698 53L785 75L873 69L960 43L960 27L873 37L785 47L698 31L611 61L524 55L436 27L349 43L262 71L175 39L87 25L0 47Z" fill="#00bcd6"></path><path d="M0 111L87 101L175 111L262 107L349 105L436 95L524 93L611 101L698 89L785 115L873 85L960 101L960 41L873 67L785 73L698 51L611 73L524 75L436 53L349 63L262 87L175 65L87 59L0 77Z" fill="#00adfd"></path><path d="M0 137L87 139L175 137L262 139L349 133L436 115L524 133L611 137L698 129L785 139L873 119L960 119L960 99L873 83L785 113L698 87L611 99L524 91L436 93L349 103L262 105L175 109L87 99L0 109Z" fill="#4292ff"></path><path d="M0 201L87 201L175 201L262 201L349 201L436 201L524 201L611 201L698 201L785 201L873 201L960 201L960 117L873 117L785 137L698 127L611 135L524 131L436 113L349 131L262 137L175 135L87 137L0 135Z" fill="#9966ff"></path></svg>