<svg id="visual" viewBox="0 0 960 300" width="960" height="300" xmlns="http://www.w3.org/2000/svg" xmlns:xlink="http://www.w3.org/1999/xlink" version="1.1"><path d="M0 37L87 37L87 22L175 22L175 37L262 37L262 40L349 40L349 31L436 31L436 28L524 28L524 49L611 49L611 19L698 19L698 37L785 37L785 46L873 46L873 37L960 37L960 52L960 0L960 0L873 0L873 0L785 0L785 0L698 0L698 0L611 0L611 0L524 0L524 0L436 0L436 0L349 0L349 0L262 0L262 0L175 0L175 0L87 0L87 0L0 0Z" fill="#5cb1d6"></path><path d="M0 121L87 121L87 124L175 124L175 115L262 115L262 106L349 106L349 181L436 181L436 139L524 139L524 148L611 148L611 82L698 82L698 88L785 88L785 148L873 148L873 160L960 160L960 109L960 50L960 35L873 35L873 44L785 44L785 35L698 35L698 17L611 17L611 47L524 47L524 26L436 26L436 29L349 29L349 38L262 38L262 35L175 35L175 20L87 20L87 35L0 35Z" fill="#77a5e9"></path><path d="M0 172L87 172L87 181L175 181L175 160L262 160L262 145L349 145L349 220L436 220L436 199L524 199L524 178L611 178L611 115L698 115L698 145L785 145L785 187L873 187L873 193L960 193L960 154L960 107L960 158L873 158L873 146L785 146L785 86L698 86L698 80L611 80L611 146L524 146L524 137L436 137L436 179L349 179L349 104L262 104L262 113L175 113L175 122L87 122L87 119L0 119Z" fill="#b291e3"></path><path d="M0 235L87 235L87 253L175 253L175 223L262 223L262 262L349 262L349 274L436 274L436 271L524 271L524 247L611 247L611 232L698 232L698 229L785 229L785 250L873 250L873 256L960 256L960 268L960 152L960 191L873 191L873 185L785 185L785 143L698 143L698 113L611 113L611 176L524 176L524 197L436 197L436 218L349 218L349 143L262 143L262 158L175 158L175 179L87 179L87 170L0 170Z" fill="#e777bd"></path><path d="M0 301L87 301L87 301L175 301L175 301L262 301L262 301L349 301L349 301L436 301L436 301L524 301L524 301L611 301L611 301L698 301L698 301L785 301L785 301L873 301L873 301L960 301L960 301L960 266L960 254L873 254L873 248L785 248L785 227L698 227L698 230L611 230L611 245L524 245L524 269L436 269L436 272L349 272L349 260L262 260L262 221L175 221L175 251L87 251L87 233L0 233Z" fill="#ff6680"></path></svg>